<svg width="250" height="95" viewBox="0 0 250 95" fill="none" xmlns="http://www.w3.org/2000/svg">
<path d="M71.9697 63.7923V52.4664C71.9697 50.2573 70.1788 48.4664 67.9697 48.4664H64.6061C62.3969 48.4664 60.6061 46.6755 60.6061 44.4664V27.3427C60.6061 25.1336 58.8152 23.3427 56.6061 23.3427H43.7727C41.5636 23.3427 39.7727 25.1336 39.7727 27.3427V44.4664C39.7727 46.6755 37.9819 48.4664 35.7727 48.4664H26.7273C24.5181 48.4664 22.7273 46.6755 22.7273 44.4664V4.15161C22.7273 1.94247 20.9364 0.151611 18.7273 0.151611H4C1.79086 0.151611 0 1.94247 0 4.15161V63.7923C0 66.0014 1.79086 67.7923 4 67.7923H35.7727C37.9819 67.7923 39.7727 69.5832 39.7727 71.7923V90.8486C39.7727 93.0577 41.5636 94.8486 43.7727 94.8486H56.6061C58.8152 94.8486 60.6061 93.0577 60.6061 90.8486V71.7923C60.6061 69.5832 62.3969 67.7923 64.6061 67.7923H67.9697C70.1788 67.7923 71.9697 66.0014 71.9697 63.7923Z" fill="#204A8A"/>
<path d="M161.727 47.5001C161.727 73.6499 152.258 94.8486 123.849 94.8486C95.4394 94.8486 85.9697 73.6499 85.9697 47.5001C85.9697 21.3503 97.3334 0.151611 123.849 0.151611C150.364 0.151611 161.727 21.3503 161.727 47.5001Z" fill="#204A8A"/>
<circle cx="110.591" cy="39.9242" r="5.68182" fill="white"/>
<circle cx="137.106" cy="39.9242" r="5.68182" fill="white"/>
<path d="M108.246 61.6822C110.113 60.0648 112.571 58.8981 115.223 58.133C118.03 57.3474 120.933 56.956 123.848 56.9701C126.825 56.9701 129.795 57.3602 132.473 58.133C135.124 58.8981 137.587 60.0648 139.45 61.6822" stroke="white" stroke-width="7.57576" stroke-linecap="round"/>
<path d="M247.697 63.7923V52.4664C247.697 50.2573 245.906 48.4664 243.697 48.4664H240.333C238.124 48.4664 236.333 46.6755 236.333 44.4664V27.3427C236.333 25.1336 234.542 23.3427 232.333 23.3427H219.5C217.291 23.3427 215.5 25.1336 215.5 27.3427V44.4664C215.5 46.6755 213.709 48.4664 211.5 48.4664H202.454C200.245 48.4664 198.454 46.6755 198.454 44.4664V4.15161C198.454 1.94247 196.663 0.151611 194.454 0.151611H179.727C177.518 0.151611 175.727 1.94247 175.727 4.15161V63.7923C175.727 66.0014 177.518 67.7923 179.727 67.7923H211.5C213.709 67.7923 215.5 69.5832 215.5 71.7923V90.8486C215.5 93.0577 217.291 94.8486 219.5 94.8486H232.333C234.542 94.8486 236.333 93.0577 236.333 90.8486V71.7923C236.333 69.5832 238.124 67.7923 240.333 67.7923H243.697C245.906 67.7923 247.697 66.0014 247.697 63.7923Z" fill="#204A8A"/>
</svg>
