<svg xmlns="http://www.w3.org/2000/svg" version="1.1" xmlns:xlink="http://www.w3.org/1999/xlink" width="1000" height="1000"><g clip-path="url(#SvgjsClipPath1039)"><rect width="1000" height="1000" fill="#ffffff"></rect><g transform="matrix(62.5,0,0,62.5,0,0)"><svg xmlns="http://www.w3.org/2000/svg" version="1.1" xmlns:xlink="http://www.w3.org/1999/xlink" width="16" height="16"><svg width="16" height="16" viewBox="0 0 16 16" fill="none" xmlns="http://www.w3.org/2000/svg">
<g clip-path="url(#clip0_366_898)">
<rect x="3.56424" y="2.14359" width="8.57436" height="11.6103" rx="0.184615" fill="#A3BFE4"></rect>
<rect x="3.56424" y="2.14359" width="8.57436" height="11.6103" rx="0.184615" stroke="#5281C2" stroke-width="0.287179"></rect>
<path d="M4.56934 8.76904H11.1334" stroke="white" stroke-width="0.287179" stroke-linecap="round"></path>
<path d="M5.38977 10H10.3128" stroke="white" stroke-width="0.287179" stroke-linecap="round"></path>
<path d="M8.67188 12.7075H11.1334" stroke="white" stroke-width="0.287179" stroke-linecap="round"></path>
<path d="M9.65649 3.74348L9.89466 3.98164C9.91048 3.99747 9.93606 3.99769 9.95216 3.98215L10.518 3.43579" stroke="white" stroke-width="0.287179" stroke-linecap="round"></path>
<path d="M6.74777 4.3794C6.52439 4.3794 6.32537 4.52493 6.26123 4.73901L6.02854 5.51646L5.70057 5.40544L5.59497 5.72258L5.92802 5.83376L5.82225 6.19338C5.81826 6.2089 5.81649 6.22491 5.817 6.24093V7.59478C5.817 7.68786 5.89316 7.76401 5.98623 7.76401H6.49392L6.55214 7.59478H9.1434L9.20162 7.76401H9.70931C9.80239 7.76401 9.87854 7.68786 9.87854 7.59478V7.45195C9.87922 7.44349 9.87922 7.43418 9.87854 7.42555V6.24093C9.87905 6.22491 9.87729 6.2089 9.87329 6.19338L9.76752 5.83376L10.1006 5.72275L9.9948 5.40527L9.667 5.51646L9.43431 4.73901C9.40253 4.6348 9.33807 4.54357 9.25046 4.47881C9.16284 4.41405 9.05672 4.3792 8.94777 4.3794H6.74777ZM6.74777 4.71786H8.94777C9.02308 4.71786 9.08992 4.76744 9.11176 4.83953L9.32854 5.56401H6.367L6.58379 4.83953C6.60579 4.76676 6.67246 4.71786 6.74777 4.71786ZM6.26648 5.90247H9.42906L9.54008 6.27275V7.25632H6.15546V6.27258L6.26648 5.90247ZM6.57854 6.0717C6.51122 6.0717 6.44665 6.09845 6.39904 6.14605C6.35144 6.19366 6.32469 6.25823 6.32469 6.32555C6.32469 6.39287 6.35144 6.45744 6.39904 6.50505C6.44665 6.55265 6.51122 6.5794 6.57854 6.5794C6.64586 6.5794 6.71043 6.55265 6.75804 6.50505C6.80564 6.45744 6.83239 6.39287 6.83239 6.32555C6.83239 6.25823 6.80564 6.19366 6.75804 6.14605C6.71043 6.09845 6.64586 6.0717 6.57854 6.0717ZM9.117 6.0717C9.04968 6.0717 8.98511 6.09845 8.93751 6.14605C8.8899 6.19366 8.86316 6.25823 8.86316 6.32555C8.86316 6.39287 8.8899 6.45744 8.93751 6.50505C8.98511 6.55265 9.04968 6.5794 9.117 6.5794C9.18433 6.5794 9.24889 6.55265 9.2965 6.50505C9.3441 6.45744 9.37085 6.39287 9.37085 6.32555C9.37085 6.25823 9.3441 6.19366 9.2965 6.14605C9.24889 6.09845 9.18433 6.0717 9.117 6.0717ZM7.17085 6.5794L6.95931 7.08709H7.32417L7.39829 6.91786H8.29725L8.37137 7.08709H8.73623L8.52469 6.5794H7.17085Z" fill="#5281C2"></path>
<rect x="6.62061" y="1.63062" width="2.46154" height="0.984615" rx="0.328205" fill="#5281C2"></rect>
<path d="M1.77965 10.0336C1.70754 9.96146 1.58704 9.9795 1.55098 10.0745C1.48646 10.2425 1.45136 10.4258 1.45136 10.6166C1.45136 11.456 2.13071 12.1358 2.96946 12.1358C3.1355 12.1358 3.29585 12.1092 3.44576 12.0599L6.02909 14.6819C6.29571 14.9487 6.72837 14.9487 6.99498 14.6819C7.2616 14.4151 7.2616 13.9821 6.99498 13.7153L4.41166 11.0933C4.46099 10.9432 4.48756 10.7837 4.48756 10.6166C4.48756 9.77726 3.80821 9.09741 2.96946 9.09741C2.77875 9.09741 2.59563 9.13254 2.42769 9.19711C2.3328 9.23319 2.31573 9.35378 2.38689 9.42594L3.22849 10.2682C3.25695 10.2966 3.27308 10.3356 3.27308 10.3754V10.7685C3.27308 10.8521 3.20477 10.9205 3.12127 10.9205H2.72846C2.68861 10.9205 2.64971 10.9043 2.62124 10.8758L1.77965 10.0336Z" fill="#5281C2"></path>
</g>
<defs>
<clipPath id="clip0_366_898">
<rect width="16" height="16" rx="2" fill="white"></rect>
</clipPath>
<clipPath id="SvgjsClipPath1039"><rect width="1000" height="1000" x="0" y="0" rx="0" ry="0"></rect></clipPath></defs>
</svg></svg></g></g></svg>